<?xml version="1.0" encoding="utf-8"?><!-- Uploaded to: SVG Repo, www.svgrepo.com, Generator: SVG Repo Mixer Tools -->
<svg width="800px" height="800px" viewBox="0 -0.5 25 25" fill="none" xmlns="http://www.w3.org/2000/svg">
<path fill-rule="evenodd" clip-rule="evenodd" d="M11.5 7C11.5 8.10457 10.6046 9 9.5 9C8.39543 9 7.5 8.10457 7.5 7C7.5 5.89543 8.39543 5 9.5 5C10.6046 5 11.5 5.89543 11.5 7Z" stroke="#000000" stroke-width="1.5" stroke-linecap="round" stroke-linejoin="round"/>
<path fill-rule="evenodd" clip-rule="evenodd" d="M14.5 15.5C14.5 17.433 12.261 19 9.5 19C6.739 19 4.5 17.433 4.5 15.5C4.5 13.567 6.739 12 9.5 12C12.261 12 14.5 13.567 14.5 15.5Z" stroke="#000000" stroke-width="1.5" stroke-linecap="round" stroke-linejoin="round"/>
<path d="M19.25 5C19.25 4.58579 18.9142 4.25 18.5 4.25C18.0858 4.25 17.75 4.58579 17.75 5H19.25ZM17.75 7C17.75 7.41421 18.0858 7.75 18.5 7.75C18.9142 7.75 19.25 7.41421 19.25 7H17.75ZM19.25 7C19.25 6.58579 18.9142 6.25 18.5 6.25C18.0858 6.25 17.75 6.58579 17.75 7H19.25ZM17.75 9C17.75 9.41421 18.0858 9.75 18.5 9.75C18.9142 9.75 19.25 9.41421 19.25 9H17.75ZM18.5 7.75C18.9142 7.75 19.25 7.41421 19.25 7C19.25 6.58579 18.9142 6.25 18.5 6.25V7.75ZM16.5 6.25C16.0858 6.25 15.75 6.58579 15.75 7C15.75 7.41421 16.0858 7.75 16.5 7.75V6.25ZM18.5 6.25C18.0858 6.25 17.75 6.58579 17.75 7C17.75 7.41421 18.0858 7.75 18.5 7.75V6.25ZM20.5 7.75C20.9142 7.75 21.25 7.41421 21.25 7C21.25 6.58579 20.9142 6.25 20.5 6.25V7.75ZM17.75 5V7H19.25V5H17.75ZM17.75 7V9H19.25V7H17.75ZM18.5 6.25H16.5V7.75H18.5V6.25ZM18.5 7.75H20.5V6.25H18.5V7.75Z" fill="#000000"/>
</svg>